<svg width="24" height="24" viewBox="0 0 24 24" fill="none" xmlns="http://www.w3.org/2000/svg">
<path d="M12 0C18.6274 0 24 5.37262 24 12.0001C24 18.6276 18.6274 24.0002 12 24.0002C5.37258 24.0002 0 18.6276 0 12.0001C0 5.37262 5.37258 0 12 0Z" fill="#F1F1F2"/>
<path d="M12 2.00003C17.5228 2.00003 22 6.47722 22 12.0001C22 17.523 17.5228 22.0002 12 22.0002C6.47715 22.0002 2 17.523 2 12.0001C2 6.47722 6.47715 2.00003 12 2.00003Z" fill="white"/>
<path d="M22 12.0001C22 16.2998 19.2862 19.9652 15.4782 21.3782V2.62197C19.2862 4.03495 22 7.70041 22 12.0001Z" fill="#D80027"/>
<path d="M2 12.0001C2 7.70041 4.71379 4.03495 8.52175 2.62201V21.3782C4.71379 19.9652 2 16.2998 2 12.0001Z" fill="#0052B4"/>
</svg>
