<svg width="24" height="24" viewBox="0 0 24 24" fill="none" xmlns="http://www.w3.org/2000/svg">
<path d="M12 24C18.6274 24 24 18.6274 24 12C24 5.37259 18.6274 0 12 0C5.37258 0 0 5.37259 0 12C0 18.6274 5.37258 24 12 24Z" fill="#F1F1F2"/>
<path d="M2.62198 15.4783C4.03491 19.2863 7.70034 22.0001 12 22.0001C16.2997 22.0001 19.9651 19.2863 21.378 15.4783L12 14.6088L2.62198 15.4783Z" fill="#FFDA44"/>
<path d="M12 2C7.70034 2 4.03491 4.71376 2.62198 8.52177L12 9.3913L21.378 8.52173C19.9651 4.71376 16.2997 2 12 2Z" fill="black"/>
<path d="M2.62199 8.52191C2.22004 9.60523 2 10.777 2 12.0002C2 13.2234 2.22004 14.3951 2.62199 15.4784H21.3781C21.78 14.3951 22 13.2234 22 12.0002C22 10.777 21.78 9.60523 21.378 8.52191H2.62199Z" fill="#D80027"/>
</svg>
