<svg width="24" height="24" viewBox="0 0 24 24" fill="none" xmlns="http://www.w3.org/2000/svg">
<path d="M12 0C18.6274 0 24 5.37258 24 12C24 18.6274 18.6274 24 12 24C5.37258 24 0 18.6274 0 12C0 5.37258 5.37258 0 12 0Z" fill="#F1F1F2"/>
<path d="M12 2C17.5228 2 22 6.47715 22 12C22 17.5228 17.5228 22 12 22C6.47715 22 2 17.5228 2 12C2 6.47715 6.47715 2 12 2Z" fill="white"/>
<path d="M4.06718 18.0882C3.28167 17.0662 2.68937 15.8883 2.34448 14.6087H7.54675L4.06718 18.0882Z" fill="#0052B4"/>
<path d="M21.6555 14.6086C21.3106 15.8882 20.7183 17.0662 19.9328 18.0882L16.4533 14.6086H21.6555Z" fill="#0052B4"/>
<path d="M2.34448 9.39136C2.6894 8.11175 3.28171 6.93382 4.06718 5.91186L7.54663 9.39136H2.34448Z" fill="#0052B4"/>
<path d="M18.0882 19.9328C17.0662 20.7183 15.8883 21.3106 14.6086 21.6555V16.4533L18.0882 19.9328Z" fill="#0052B4"/>
<path d="M5.9118 4.06727C6.9338 3.28176 8.11173 2.68946 9.39134 2.34454V7.54672L5.9118 4.06727Z" fill="#0052B4"/>
<path d="M9.3913 21.6555C8.11169 21.3106 6.93376 20.7183 5.9118 19.9328L9.3913 16.4533V21.6555Z" fill="#0052B4"/>
<path d="M14.6087 2.34454C15.8883 2.68946 17.0662 3.28176 18.0882 4.06723L14.6087 7.54672V2.34454Z" fill="#0052B4"/>
<path d="M16.4533 9.39136L19.9328 5.91183C20.7183 6.93378 21.3106 8.11175 21.6555 9.39136H16.4533Z" fill="#0052B4"/>
<path d="M21.9154 13.3043H13.3044H13.3044V21.9154C12.8774 21.9709 12.4421 22 12 22C11.5579 22 11.1226 21.9709 10.6957 21.9154V13.3044V13.3044H2.08465C2.02906 12.8774 2 12.4421 2 12C2 11.5579 2.02906 11.1226 2.08465 10.6957H10.6956H10.6956V2.08465C11.1226 2.02906 11.5579 2 12 2C12.4421 2 12.8774 2.02902 13.3043 2.08465V10.6956V10.6956H21.9154C21.9709 11.1226 22 11.5579 22 12C22 12.4421 21.9709 12.8774 21.9154 13.3043Z" fill="#D80027"/>
<path d="M14.6087 9.39123L19.071 4.92888C19.2763 5.13404 19.4721 5.34853 19.6589 5.57087L15.8385 9.39127H14.6087V9.39123Z" fill="#D80027"/>
<path d="M9.39127 9.3912H9.39119L4.92889 4.9289C5.13405 4.72366 5.34854 4.52788 5.57089 4.34109L9.39127 8.16156V9.3912Z" fill="#D80027"/>
<path d="M9.39128 14.6086V14.6087L4.92894 19.0711C4.7237 18.8659 4.52792 18.6514 4.34113 18.4291L8.16155 14.6086H9.39128V14.6086Z" fill="#D80027"/>
<path d="M14.6087 14.6087L19.0711 19.0711C18.8659 19.2764 18.6514 19.4721 18.4291 19.6589L14.6087 15.8385V14.6087Z" fill="#D80027"/>
</svg>
